HIERARCHY
ROOT hip
{
  OFFSET 0 90.174 2.4664
  CHANNELS 6 Xposition Yposition Zposition Zrotation Xrotation Yrotation
  JOINT abdomen
  {
    OFFSET 0 -1.186 -1.5018
    CHANNELS 6 Xposition Yposition Zposition Zrotation Xrotation Yrotation
    JOINT abdomen2
    {
      OFFSET 0 9.964 0.2134
      CHANNELS 6 Xposition Yposition Zposition Zrotation Xrotation Yrotation
      JOINT chest
      {
        OFFSET 0 13.134 -3.2573
        CHANNELS 6 Xposition Yposition Zposition Zrotation Xrotation Yrotation
        JOINT neck
        {
          OFFSET 0 20.686 -1.6905
          CHANNELS 6 Xposition Yposition Zposition Zrotation Xrotation Yrotation
          JOINT head
          {
            OFFSET 0 7.238 -0.1237
            CHANNELS 6 Xposition Yposition Zposition Zrotation Xrotation Yrotation
            End Site
            {
              OFFSET 0 0 0
            }
          }
        }
        JOINT lCollar
        {
          OFFSET 1.7069 20.075 5.0056
          CHANNELS 6 Xposition Yposition Zposition Zrotation Xrotation Yrotation
          JOINT lShldr
          {
            OFFSET 13.6458 -0.047 -4.849
            CHANNELS 6 Xposition Yposition Zposition Zrotation Xrotation Yrotation
            JOINT lForeArm
            {
              OFFSET 28.3255 -0.9759 2.2888
              CHANNELS 6 Xposition Yposition Zposition Zrotation Xrotation Yrotation
              JOINT lHand
              {
                OFFSET 22.1583 -0.53 10.8316
                CHANNELS 6 Xposition Yposition Zposition Zrotation Xrotation Yrotation
                JOINT lThumb1
                {
                  OFFSET 0.786 0.112 2.5817
                  CHANNELS 6 Xposition Yposition Zposition Zrotation Xrotation Yrotation
                  JOINT lThumb2
                  {
                    OFFSET 0.3601 -0.878 4.2331
                    CHANNELS 6 Xposition Yposition Zposition Zrotation Xrotation Yrotation
                    JOINT lThumb2_End
                    {
                      OFFSET 1.8127 -1.216 2.2227
                      CHANNELS 6 Xposition Yposition Zposition Zrotation Xrotation Yrotation
                      End Site
                      {
                        OFFSET 0.0181 -0.0122 0.0222
                      }
                    }
                  }
                }
                JOINT lCarpal1
                {
                  OFFSET 0.9571 1.114 1.7695
                  CHANNELS 6 Xposition Yposition Zposition Zrotation Xrotation Yrotation
                  JOINT lIndex1
                  {
                    OFFSET 4.1246 0.487 4.1451
                    CHANNELS 6 Xposition Yposition Zposition Zrotation Xrotation Yrotation
                    JOINT lIndex2
                    {
                      OFFSET 3.4052 -1.454 2.7682
                      CHANNELS 6 Xposition Yposition Zposition Zrotation Xrotation Yrotation
                      JOINT lIndex2_End
                      {
                        OFFSET 1.4531 -1.795 1.2713
                        CHANNELS 6 Xposition Yposition Zposition Zrotation Xrotation Yrotation
                        End Site
                        {
                          OFFSET 0.0145 -0.0179 0.0127
                        }
                      }
                    }
                  }
                  JOINT lMid1
                  {
                    OFFSET 5.6954 0.21 2.1184
                    CHANNELS 6 Xposition Yposition Zposition Zrotation Xrotation Yrotation
                    JOINT lMid2
                    {
                      OFFSET 3.9766 -1.54 2.3863
                      CHANNELS 6 Xposition Yposition Zposition Zrotation Xrotation Yrotation
                      JOINT lMid2_End
                      {
                        OFFSET 1.4042 -1.926 1.125
                        CHANNELS 6 Xposition Yposition Zposition Zrotation Xrotation Yrotation
                        End Site
                        {
                          OFFSET 0.014 -0.0193 0.0113
                        }
                      }
                    }
                  }
                }
                JOINT lCarpal2
                {
                  OFFSET 2.0956 0.66 -0.3894
                  CHANNELS 6 Xposition Yposition Zposition Zrotation Xrotation Yrotation
                  JOINT lRing1
                  {
                    OFFSET 5.0395 -0.09 2.4971
                    CHANNELS 6 Xposition Yposition Zposition Zrotation Xrotation Yrotation
                    JOINT lRing2
                    {
                      OFFSET 3.7921 -1.552 1.4806
                      CHANNELS 6 Xposition Yposition Zposition Zrotation Xrotation Yrotation
                      JOINT lRing2_End
                      {
                        OFFSET 1.4655 -1.808 0.9609
                        CHANNELS 6 Xposition Yposition Zposition Zrotation Xrotation Yrotation
                        End Site
                        {
                          OFFSET 0.0147 -0.0181 0.0096
                        }
                      }
                    }
                  }
                  JOINT lPinky1
                  {
                    OFFSET 4.9141 -1.269 0.3591
                    CHANNELS 6 Xposition Yposition Zposition Zrotation Xrotation Yrotation
                    JOINT lPinky2
                    {
                      OFFSET 3.1477 -1.685 0.8462
                      CHANNELS 6 Xposition Yposition Zposition Zrotation Xrotation Yrotation
                      JOINT lPinky2_End
                      {
                        OFFSET 0.8055 -1.585 0.7955
                        CHANNELS 6 Xposition Yposition Zposition Zrotation Xrotation Yrotation
                        End Site
                        {
                          OFFSET 0.0081 -0.0158 0.008
                        }
                      }
                    }
                  }
                }
              }
            }
          }
        }
        JOINT rCollar
        {
          OFFSET -1.7069 20.075 5.0056
          CHANNELS 6 Xposition Yposition Zposition Zrotation Xrotation Yrotation
          JOINT rShldr
          {
            OFFSET -13.6458 -0.047 -4.849
            CHANNELS 6 Xposition Yposition Zposition Zrotation Xrotation Yrotation
            JOINT rForeArm
            {
              OFFSET -28.3255 -0.9759 2.2888
              CHANNELS 6 Xposition Yposition Zposition Zrotation Xrotation Yrotation
              JOINT rHand
              {
                OFFSET -22.1583 -0.53 10.8316
                CHANNELS 6 Xposition Yposition Zposition Zrotation Xrotation Yrotation
                JOINT rThumb1
                {
                  OFFSET -0.786 0.112 2.5817
                  CHANNELS 6 Xposition Yposition Zposition Zrotation Xrotation Yrotation
                  JOINT rThumb2
                  {
                    OFFSET -0.3601 -0.878 4.2331
                    CHANNELS 6 Xposition Yposition Zposition Zrotation Xrotation Yrotation
                    JOINT rThumb2_End
                    {
                      OFFSET -1.8127 -1.216 2.2227
                      CHANNELS 6 Xposition Yposition Zposition Zrotation Xrotation Yrotation
                      End Site
                      {
                        OFFSET -0.0181 -0.0122 0.0222
                      }
                    }
                  }
                }
                JOINT rCarpal1
                {
                  OFFSET -0.9571 1.114 1.7695
                  CHANNELS 6 Xposition Yposition Zposition Zrotation Xrotation Yrotation
                  JOINT rIndex1
                  {
                    OFFSET -4.1246 0.487 4.1451
                    CHANNELS 6 Xposition Yposition Zposition Zrotation Xrotation Yrotation
                    JOINT rIndex2
                    {
                      OFFSET -3.4052 -1.454 2.7682
                      CHANNELS 6 Xposition Yposition Zposition Zrotation Xrotation Yrotation
                      JOINT rIndex2_End
                      {
                        OFFSET -1.4531 -1.795 1.2713
                        CHANNELS 6 Xposition Yposition Zposition Zrotation Xrotation Yrotation
                        End Site
                        {
                          OFFSET -0.0145 -0.018 0.0127
                        }
                      }
                    }
                  }
                  JOINT rMid1
                  {
                    OFFSET -5.6954 0.21 2.1184
                    CHANNELS 6 Xposition Yposition Zposition Zrotation Xrotation Yrotation
                    JOINT rMid2
                    {
                      OFFSET -3.9766 -1.54 2.3863
                      CHANNELS 6 Xposition Yposition Zposition Zrotation Xrotation Yrotation
                      JOINT rMid2_End
                      {
                        OFFSET -1.4042 -1.926 1.125
                        CHANNELS 6 Xposition Yposition Zposition Zrotation Xrotation Yrotation
                        End Site
                        {
                          OFFSET -0.014 -0.0193 0.0113
                        }
                      }
                    }
                  }
                }
                JOINT rCarpal2
                {
                  OFFSET -2.0956 0.66 -0.3894
                  CHANNELS 6 Xposition Yposition Zposition Zrotation Xrotation Yrotation
                  JOINT rRing1
                  {
                    OFFSET -5.0395 -0.09 2.4971
                    CHANNELS 6 Xposition Yposition Zposition Zrotation Xrotation Yrotation
                    JOINT rRing2
                    {
                      OFFSET -3.7921 -1.552 1.4806
                      CHANNELS 6 Xposition Yposition Zposition Zrotation Xrotation Yrotation
                      JOINT rRing2_End
                      {
                        OFFSET -1.4655 -1.808 0.9609
                        CHANNELS 6 Xposition Yposition Zposition Zrotation Xrotation Yrotation
                        End Site
                        {
                          OFFSET -0.0147 -0.0181 0.0096
                        }
                      }
                    }
                  }
                  JOINT rPinky1
                  {
                    OFFSET -4.9141 -1.269 0.3592
                    CHANNELS 6 Xposition Yposition Zposition Zrotation Xrotation Yrotation
                    JOINT rPinky2
                    {
                      OFFSET -3.1477 -1.685 0.8462
                      CHANNELS 6 Xposition Yposition Zposition Zrotation Xrotation Yrotation
                      JOINT rPinky2_End
                      {
                        OFFSET -0.8055 -1.585 0.7955
                        CHANNELS 6 Xposition Yposition Zposition Zrotation Xrotation Yrotation
                        End Site
                        {
                          OFFSET -0.0081 -0.0158 0.008
                        }
                      }
                    }
                  }
                }
              }
            }
          }
        }
      }
    }
  }
  JOINT lThigh
  {
    OFFSET 8.367 -8.2066 0.5982
    CHANNELS 6 Xposition Yposition Zposition Zrotation Xrotation Yrotation
    JOINT lShin
    {
      OFFSET 2.1923 -43.463 -0.4932
      CHANNELS 6 Xposition Yposition Zposition Zrotation Xrotation Yrotation
      JOINT lFoot
      {
        OFFSET 0.7333 -45.8593 -2.6451
        CHANNELS 6 Xposition Yposition Zposition Zrotation Xrotation Yrotation
        End Site
        {
          OFFSET 2.6618 -4.2699 12.3931
        }
      }
    }
  }
  JOINT rThigh
  {
    OFFSET -8.367 -8.2066 0.5982
    CHANNELS 6 Xposition Yposition Zposition Zrotation Xrotation Yrotation
    JOINT rShin
    {
      OFFSET -2.1923 -43.463 -0.4931
      CHANNELS 6 Xposition Yposition Zposition Zrotation Xrotation Yrotation
      JOINT rFoot
      {
        OFFSET -0.7333 -45.8593 -2.6451
        CHANNELS 6 Xposition Yposition Zposition Zrotation Xrotation Yrotation
        End Site
        {
          OFFSET -2.6618 -4.2699 12.3931
        }
      }
    }
  }
}
MOTION
Frames:	4
Frame Time:	0.0333333
0 90.174 2.4664 0 0 -0 0 -1.186 -1.5018 0 0 -0 0 9.964 0.2134 0 0 -0 0 13.134 -3.2573 0 0 -0 0 20.686 -1.6905 0 0 -0 0 7.238 -0.1237 0 0 -0 1.7069 20.075 5.0056 0 0 -0 13.6458 -0.047 -4.849 1.66051 0.0835086 5.75766 28.3255 -0.9759 2.2888 -0.0175111 0.895433 15.7816 22.1583 -0.53 10.8316 7.95139e-016 -1.98785e-016 -0 0.786 0.112 2.5817 5.46658e-016 -3.97569e-016 -0 0.3601 -0.878 4.2331 5.96354e-016 0 -0 1.8127 -1.216 2.2227 3.97569e-016 1.98785e-016 9.54166e-015 0.9571 1.114 1.7695 1.49089e-016 -3.97569e-016 -0 4.1246 0.487 4.1451 6.4605e-016 0 3.18055e-015 3.4052 -1.454 2.7682 5.96354e-016 0 3.18055e-015 1.4531 -1.795 1.2713 8.94531e-016 -1.98785e-016 6.36111e-015 5.6954 0.21 2.1184 6.4605e-016 0 3.18055e-015 3.9766 -1.54 2.3863 5.96354e-016 0 3.18055e-015 1.4042 -1.926 1.125 8.94531e-016 -1.98785e-016 6.36111e-015 2.0956 0.66 -0.3894 1.49089e-016 -3.97569e-016 -0 5.0395 -0.09 2.4971 6.4605e-016 0 3.18055e-015 3.7921 -1.552 1.4806 5.96354e-016 0 3.18055e-015 1.4655 -1.808 0.9609 8.94531e-016 -1.98785e-016 6.36111e-015 4.9141 -1.269 0.3591 6.4605e-016 0 3.18055e-015 3.1477 -1.685 0.8462 5.96354e-016 0 3.18055e-015 0.8055 -1.585 0.7955 8.94531e-016 -1.98785e-016 6.36111e-015 -1.7069 20.075 5.0056 0 0 -0 -13.6458 -0.047 -4.849 -1.4496 0.0636048 -5.0245 -28.3255 -0.9759 2.2888 -1.74811 1.20616 -16.8394 -22.1583 -0.53 10.8316 -1.19271e-015 1.98785e-016 -3.18055e-015 -0.786 0.112 2.5817 -3.97569e-016 1.98785e-016 -3.18055e-015 -0.3601 -0.878 4.2331 -2.98177e-016 1.98785e-016 -3.18055e-015 -1.8127 -1.216 2.2227 -2.98177e-016 3.97569e-016 -0 -0.9571 1.114 1.7695 4.96962e-016 0 -6.36111e-015 -4.1246 0.487 4.1451 -9.93923e-017 3.97569e-016 -0 -3.4052 -1.454 2.7682 -8.94531e-016 5.96354e-016 -0 -1.4531 -1.795 1.2713 -3.97569e-016 3.97569e-016 -0 -5.6954 0.21 2.1184 -9.93923e-017 3.97569e-016 -0 -3.9766 -1.54 2.3863 -8.94531e-016 5.96354e-016 -0 -1.4042 -1.926 1.125 -3.97569e-016 3.97569e-016 -0 -2.0956 0.66 -0.3894 4.96962e-016 0 -6.36111e-015 -5.0395 -0.09 2.4971 -9.93923e-017 3.97569e-016 -0 -3.7921 -1.552 1.4806 -8.94531e-016 5.96354e-016 -0 -1.4655 -1.808 0.9609 -3.97569e-016 3.97569e-016 -0 -4.9141 -1.269 0.3592 -9.93923e-017 3.97569e-016 -0 -3.1477 -1.685 0.8462 -8.94531e-016 5.96354e-016 -0 -0.8055 -1.585 0.7955 -3.97569e-016 3.97569e-016 -0 8.367 -8.2066 0.5982 -4.66115 -1.03232 0.120763 2.1923 -43.463 -0.4932 0.00990601 1.55097 0.177175 0.7333 -45.8593 -2.6451 4.65196 -0.54114 -0.255042 -8.367 -8.2066 0.5982 4.66115 -1.03222 -0.120763 -2.1923 -43.463 -0.4931 -0.00990459 1.5509 -0.177176 -0.7333 -45.8593 -2.6451 -4.65196 -0.541171 0.255041 
-2.06286 59.6581 -16.6836 -0 -6.59994 -0 0 -1.186 -1.5018 0.0993418 10.5005 -0.0640576 2.22045e-016 9.964 0.2134 0.216474 21.0008 -0.150916 2.22045e-016 13.134 -3.2573 0.216474 21.0007 -0.150916 0 20.686 -1.6905 0.359364 21.5027 -0.169032 0 7.238 -0.1237 3.37099 -4.86418 0.379337 1.7069 20.075 5.0056 9.16848 7.33969 -28.1845 13.6458 -0.047 -4.849 -26.8142 -37.8132 -4.00165 28.3255 -0.9759 2.2888 30.5253 -6.19213 -75.3612 22.1583 -0.53 10.8316 -9.92466 -19.177 -13.5242 0.786 0.112 2.5817 6.3302e-007 -5.29422e-007 -2.18792e-007 0.3601 -0.878 4.2331 -3.1651e-007 2.64711e-007 1.09396e-007 1.8127 -1.216 2.2227 -3.1651e-007 2.64711e-007 1.09396e-007 0.9571 1.114 1.7695 6.36111e-015 1.19271e-015 -1.59028e-015 4.1246 0.487 4.1451 6.3302e-007 -5.29422e-007 -2.18792e-007 3.4052 -1.454 2.7682 -3.1651e-007 2.64711e-007 1.09396e-007 1.4531 -1.795 1.2713 -3.1651e-007 2.64711e-007 1.09396e-007 5.6954 0.21 2.1184 6.3302e-007 -5.29422e-007 -2.18792e-007 3.9766 -1.54 2.3863 -3.1651e-007 2.64711e-007 1.09396e-007 1.4042 -1.926 1.125 -3.1651e-007 2.64711e-007 1.09396e-007 2.0956 0.66 -0.3894 6.36111e-015 1.19271e-015 -1.59028e-015 5.0395 -0.09 2.4971 6.3302e-007 -5.29422e-007 -2.18792e-007 3.7921 -1.552 1.4806 -3.1651e-007 2.64711e-007 1.09396e-007 1.4655 -1.808 0.9609 -3.1651e-007 2.64711e-007 1.09396e-007 4.9141 -1.269 0.3591 6.3302e-007 -5.29422e-007 -2.18792e-007 3.1477 -1.685 0.8462 -3.1651e-007 2.64711e-007 1.09396e-007 0.8055 -1.585 0.7955 -3.1651e-007 2.64711e-007 1.09396e-007 -1.7069 20.075 5.0056 -8.38383 7.92111 26.9194 -13.6458 -0.047 -4.849 26.4388 -37.9329 4.72393 -28.3255 -0.9759 2.2888 -31.0118 -6.92649 73.7518 -22.1583 -0.53 10.8316 -1.46038 7.663 -18.337 -0.786 0.112 2.5817 -3.18055e-015 -2.78299e-015 -0 -0.3601 -0.878 4.2331 -2.86508e-007 -6.01235e-008 1.66425e-006 -1.8127 -1.216 2.2227 4.41391e-032 7.95139e-016 -3.18055e-015 -0.9571 1.114 1.7695 -1.59028e-015 2.78299e-015 -3.18055e-015 -4.1246 0.487 4.1451 -3.18055e-015 -1.39149e-014 9.54166e-015 -3.4052 -1.454 2.7682 -2.86508e-007 -6.01235e-008 1.66425e-006 -1.4531 -1.795 1.2713 0 2.78299e-015 -0 -5.6954 0.21 2.1184 -3.18055e-015 -1.39149e-014 9.54166e-015 -3.9766 -1.54 2.3863 -2.86508e-007 -6.01235e-008 1.66425e-006 -1.4042 -1.926 1.125 0 2.78299e-015 -0 -2.0956 0.66 -0.3894 -1.59028e-015 2.78299e-015 -3.18055e-015 -5.0395 -0.09 2.4971 -3.18055e-015 -1.39149e-014 9.54166e-015 -3.7921 -1.552 1.4806 -2.86508e-007 -6.01235e-008 1.66425e-006 -1.4655 -1.808 0.9609 0 2.78299e-015 -0 -4.9141 -1.269 0.3592 -3.18055e-015 -1.39149e-014 9.54166e-015 -3.1477 -1.685 0.8462 -2.86508e-007 -6.01235e-008 1.66425e-006 -0.8055 -1.585 0.7955 0 2.78299e-015 -0 8.367 -8.2066 0.5982 6.03335 -0.93596 8.18786 2.1923 -43.463 -0.4932 3.94062 68.1511 -6.76097 0.7333 -45.8593 -2.6451 18.4067 45.7135 -0.825972 -8.367 -8.2066 0.5982 -6.86308 -1.43946 -8.25642 -2.1923 -43.463 -0.4931 -4.20081 68.3008 7.07823 -0.7333 -45.8593 -2.6451 -18.9751 45.1407 1.75157 
-2.99866 45.4082 -25.859 -0 -9.90781 -0 0 -1.186 -1.5018 0.15875 15.3719 -0.110022 0 9.964 0.2134 0.370783 30.7433 -0.282416 0 13.134 -3.2573 0.370783 30.7433 -0.282416 -4.44089e-016 20.686 -1.6905 0.571476 31.1136 -0.313609 4.44089e-016 7.238 -0.1237 4.91809 -7.94294 0.624034 1.7069 20.075 5.0056 15.6991 8.59007 -40.7906 13.6458 -0.047 -4.849 -46.9084 -53.8143 -13.5835 28.3255 -0.9759 2.2888 31.3054 -40.0198 -103.522 22.1583 -0.53 10.8316 -17.5918 -26.0944 -21.3275 0.786 0.112 2.5817 3.18055e-015 1.59028e-014 6.36111e-015 0.3601 -0.878 4.2331 6.36111e-015 9.54166e-015 3.18055e-015 1.8127 -1.216 2.2227 4.77083e-015 9.54166e-015 -0 0.9571 1.114 1.7695 6.36111e-015 4.77083e-015 6.36111e-015 4.1246 0.487 4.1451 7.95139e-015 7.95139e-015 -3.18055e-015 3.4052 -1.454 2.7682 1.59028e-015 0 -0 1.4531 -1.795 1.2713 -3.18055e-015 6.36111e-015 -3.18055e-015 5.6954 0.21 2.1184 7.95139e-015 7.95139e-015 -3.18055e-015 3.9766 -1.54 2.3863 1.59028e-015 0 -0 1.4042 -1.926 1.125 -3.18055e-015 6.36111e-015 -3.18055e-015 2.0956 0.66 -0.3894 6.36111e-015 4.77083e-015 6.36111e-015 5.0395 -0.09 2.4971 7.95139e-015 7.95139e-015 -3.18055e-015 3.7921 -1.552 1.4806 1.59028e-015 0 -0 1.4655 -1.808 0.9609 -3.18055e-015 6.36111e-015 -3.18055e-015 4.9141 -1.269 0.3591 7.95139e-015 7.95139e-015 -3.18055e-015 3.1477 -1.685 0.8462 1.59028e-015 0 -0 0.8055 -1.585 0.7955 -3.18055e-015 6.36111e-015 -3.18055e-015 -1.7069 20.075 5.0056 -14.7099 9.4424 39.0448 -13.6458 -0.047 -4.849 46.2821 -53.9845 14.329 -28.3255 -0.9759 2.2888 -31.9202 -40.8592 101.171 -22.1583 -0.53 10.8316 -0.307702 10.8023 -27.0657 -0.786 0.112 2.5817 -1.7005e-007 -9.33449e-007 -4.8358e-008 -0.3601 -0.878 4.2331 -1.18889e-006 -2.29093e-006 -5.16312e-008 -1.8127 -1.216 2.2227 -5.09419e-007 -6.78739e-007 -1.63658e-009 -0.9571 1.114 1.7695 1.59028e-015 -1.19271e-015 6.36111e-015 -4.1246 0.487 4.1451 -1.7005e-007 -9.33449e-007 -4.8358e-008 -3.4052 -1.454 2.7682 -1.18889e-006 -2.29093e-006 -5.16312e-008 -1.4531 -1.795 1.2713 -5.09419e-007 -6.78739e-007 -1.63658e-009 -5.6954 0.21 2.1184 -1.7005e-007 -9.33449e-007 -4.8358e-008 -3.9766 -1.54 2.3863 -1.18889e-006 -2.29093e-006 -5.16312e-008 -1.4042 -1.926 1.125 -5.09419e-007 -6.78739e-007 -1.63658e-009 -2.0956 0.66 -0.3894 1.59028e-015 -1.19271e-015 6.36111e-015 -5.0395 -0.09 2.4971 -1.7005e-007 -9.33449e-007 -4.8358e-008 -3.7921 -1.552 1.4806 -1.18889e-006 -2.29093e-006 -5.16312e-008 -1.4655 -1.808 0.9609 -5.09419e-007 -6.78739e-007 -1.63658e-009 -4.9141 -1.269 0.3592 -1.7005e-007 -9.33449e-007 -4.8358e-008 -3.1477 -1.685 0.8462 -1.18889e-006 -2.29093e-006 -5.16312e-008 -0.8055 -1.585 0.7955 -5.09419e-007 -6.78739e-007 -1.63658e-009 8.367 -8.2066 0.5982 10.9652 -1.55678 12.7572 2.1923 -43.463 -0.4932 142.391 79.2693 -144.596 0.7333 -45.8593 -2.6451 26.0023 66.9741 -2.61715 -8.367 -8.2066 0.5982 -12.1868 -2.31118 -12.8483 -2.1923 -43.463 -0.4931 -142.561 78.9755 144.828 -0.7333 -45.8593 -2.6451 -27.7224 66.0701 4.71059 
-2.79016 48.6187 -24.1365 -0 -9.9237 -0 0 -1.186 -1.5018 0.144483 14.6146 -0.101225 -4.44089e-016 9.964 0.2134 0.333957 29.2289 -0.255239 0 13.134 -3.2573 0.333956 29.2289 -0.255239 -4.44089e-016 20.686 -1.6905 0.519801 28.834 -0.38094 0 7.238 -0.1237 4.59531 -9.2381 0.729659 1.7069 20.075 5.0056 14.6834 7.11719 -37.2434 13.6458 -0.047 -4.849 -41.6694 -50.4011 -10.7869 28.3255 -0.9759 2.2888 33.0544 -31.7682 -97.3341 22.1583 -0.53 10.8316 -15.7756 -25.442 -18.9738 0.786 0.112 2.5817 -3.18055e-015 6.36111e-015 -3.18055e-015 0.3601 -0.878 4.2331 -1.82366e-006 2.10521e-006 3.83854e-006 1.8127 -1.216 2.2227 3.18055e-015 -1.59028e-015 6.36111e-015 0.9571 1.114 1.7695 6.36111e-015 6.36111e-015 -3.18055e-015 4.1246 0.487 4.1451 3.18055e-015 4.77083e-015 6.36111e-015 3.4052 -1.454 2.7682 -1.82366e-006 2.10521e-006 3.83854e-006 1.4531 -1.795 1.2713 3.53113e-031 6.36111e-015 -3.18055e-015 5.6954 0.21 2.1184 3.18055e-015 4.77083e-015 6.36111e-015 3.9766 -1.54 2.3863 -1.82366e-006 2.10521e-006 3.83854e-006 1.4042 -1.926 1.125 3.53113e-031 6.36111e-015 -3.18055e-015 2.0956 0.66 -0.3894 6.36111e-015 6.36111e-015 -3.18055e-015 5.0395 -0.09 2.4971 3.18055e-015 4.77083e-015 6.36111e-015 3.7921 -1.552 1.4806 -1.82366e-006 2.10521e-006 3.83854e-006 1.4655 -1.808 0.9609 3.53113e-031 6.36111e-015 -3.18055e-015 4.9141 -1.269 0.3591 3.18055e-015 4.77083e-015 6.36111e-015 3.1477 -1.685 0.8462 -1.82366e-006 2.10521e-006 3.83854e-006 0.8055 -1.585 0.7955 3.53113e-031 6.36111e-015 -3.18055e-015 -1.7069 20.075 5.0056 -13.8621 7.86624 35.7068 -13.6458 -0.047 -4.849 41.1229 -50.5473 11.5388 -28.3255 -0.9759 2.2888 -33.5424 -32.561 95.218 -22.1583 -0.53 10.8316 -0.241413 9.57189 -25.8579 -0.786 0.112 2.5817 -7.95139e-016 9.93923e-016 -0 -0.3601 -0.878 4.2331 1.42677e-007 -1.2603e-007 2.96204e-006 -1.8127 -1.216 2.2227 2.5311e-007 1.34231e-007 2.42791e-006 -0.9571 1.114 1.7695 -3.86217e-032 -1.39149e-015 -1.59028e-015 -4.1246 0.487 4.1451 -2.38542e-015 7.7526e-015 -1.59028e-015 -3.4052 -1.454 2.7682 1.42677e-007 -1.2603e-007 2.96204e-006 -1.4531 -1.795 1.2713 2.5311e-007 1.34231e-007 2.42791e-006 -5.6954 0.21 2.1184 -2.38542e-015 7.7526e-015 -1.59028e-015 -3.9766 -1.54 2.3863 1.42677e-007 -1.2603e-007 2.96204e-006 -1.4042 -1.926 1.125 2.5311e-007 1.34231e-007 2.42791e-006 -2.0956 0.66 -0.3894 -3.86217e-032 -1.39149e-015 -1.59028e-015 -5.0395 -0.09 2.4971 -2.38542e-015 7.7526e-015 -1.59028e-015 -3.7921 -1.552 1.4806 1.42677e-007 -1.2603e-007 2.96204e-006 -1.4655 -1.808 0.9609 2.5311e-007 1.34231e-007 2.42791e-006 -4.9141 -1.269 0.3592 -2.38542e-015 7.7526e-015 -1.59028e-015 -3.1477 -1.685 0.8462 1.42677e-007 -1.2603e-007 2.96204e-006 -0.8055 -1.585 0.7955 2.5311e-007 1.34231e-007 2.42791e-006 8.367 -8.2066 0.5982 9.93766 -0.898216 11.5795 2.1923 -43.463 -0.4932 108.724 84.442 -111.203 0.7333 -45.8593 -2.6451 24.2924 62.2622 -2.13444 -8.367 -8.2066 0.5982 -11.0508 -1.59923 -11.6392 -2.1923 -43.463 -0.4931 -110.463 84.2323 113.006 -0.7333 -45.8593 -2.6451 -25.3576 61.3302 3.62749 
